<svg width="722" height="458" viewBox="0 0 722 458" fill="none" xmlns="http://www.w3.org/2000/svg">
<g clip-path="url(#clip0_609_104)">
<g filter="url(#filter0_i_609_104)">
<rect width="722" height="458" rx="25" fill="url(#paint0_linear_609_104)"/>
</g>
<path d="M227.096 363L221.504 345.48H225.032L229.664 360.648L228.656 360.168H231.248L230.216 360.648L234.488 345.48H237.896L232.712 363H227.096ZM243.092 363V345.48H246.5V363H243.092ZM261.168 363.456C259.584 363.456 258.224 363.176 257.088 362.616C255.952 362.056 255.024 361.328 254.304 360.432C253.6 359.536 253.08 358.56 252.744 357.504C252.408 356.448 252.24 355.432 252.24 354.456V353.928C252.24 352.84 252.408 351.768 252.744 350.712C253.096 349.656 253.632 348.696 254.352 347.832C255.072 346.968 255.984 346.28 257.088 345.768C258.208 345.24 259.528 344.976 261.049 344.976C262.632 344.976 264.008 345.264 265.176 345.84C266.36 346.4 267.305 347.2 268.009 348.24C268.713 349.264 269.136 350.464 269.28 351.84H265.848C265.72 351.04 265.432 350.368 264.984 349.824C264.552 349.264 264 348.848 263.328 348.576C262.656 348.288 261.896 348.144 261.049 348.144C260.184 348.144 259.416 348.296 258.744 348.6C258.072 348.888 257.512 349.304 257.064 349.848C256.616 350.392 256.272 351.032 256.032 351.768C255.808 352.504 255.696 353.32 255.696 354.216C255.696 355.08 255.808 355.88 256.032 356.616C256.272 357.352 256.624 358 257.088 358.56C257.552 359.104 258.12 359.528 258.792 359.832C259.48 360.136 260.272 360.288 261.168 360.288C262.481 360.288 263.585 359.968 264.481 359.328C265.392 358.672 265.944 357.76 266.137 356.592H269.569C269.409 357.84 268.985 358.984 268.296 360.024C267.609 361.064 266.665 361.896 265.465 362.52C264.264 363.144 262.832 363.456 261.168 363.456ZM278.16 363V348H281.568V363H278.16ZM273.096 348.48V345.48H286.632V348.48H273.096ZM299.469 363.456C297.885 363.456 296.509 363.176 295.341 362.616C294.189 362.056 293.229 361.328 292.461 360.432C291.709 359.52 291.141 358.544 290.757 357.504C290.389 356.448 290.205 355.432 290.205 354.456V353.928C290.205 352.856 290.397 351.792 290.781 350.736C291.165 349.664 291.741 348.696 292.509 347.832C293.293 346.968 294.261 346.28 295.413 345.768C296.565 345.24 297.917 344.976 299.469 344.976C301.005 344.976 302.349 345.24 303.501 345.768C304.653 346.28 305.613 346.968 306.381 347.832C307.165 348.696 307.749 349.664 308.133 350.736C308.517 351.792 308.709 352.856 308.709 353.928V354.456C308.709 355.432 308.517 356.448 308.133 357.504C307.765 358.544 307.197 359.52 306.429 360.432C305.677 361.328 304.717 362.056 303.549 362.616C302.397 363.176 301.037 363.456 299.469 363.456ZM299.469 360.288C300.365 360.288 301.165 360.128 301.869 359.808C302.589 359.488 303.197 359.048 303.693 358.488C304.205 357.912 304.589 357.264 304.845 356.544C305.117 355.808 305.253 355.032 305.253 354.216C305.253 353.336 305.117 352.528 304.845 351.792C304.589 351.056 304.205 350.416 303.693 349.872C303.197 349.328 302.589 348.904 301.869 348.6C301.149 348.296 300.349 348.144 299.469 348.144C298.573 348.144 297.765 348.296 297.045 348.6C296.325 348.904 295.709 349.328 295.197 349.872C294.701 350.416 294.317 351.056 294.045 351.792C293.789 352.528 293.661 353.336 293.661 354.216C293.661 355.032 293.789 355.808 294.045 356.544C294.317 357.264 294.701 357.912 295.197 358.488C295.709 359.048 296.325 359.488 297.045 359.808C297.765 360.128 298.573 360.288 299.469 360.288ZM314.402 363V345.36H317.81V363H314.402ZM325.106 363L319.73 355.368H323.546L329.09 363H325.106ZM316.802 357.144V354.384H321.266C321.89 354.384 322.426 354.256 322.874 354C323.338 353.744 323.698 353.384 323.954 352.92C324.21 352.456 324.338 351.928 324.338 351.336C324.338 350.728 324.21 350.192 323.954 349.728C323.698 349.264 323.338 348.904 322.874 348.648C322.426 348.392 321.89 348.264 321.266 348.264H316.802V345.36H320.906C322.314 345.36 323.53 345.568 324.554 345.984C325.594 346.4 326.394 347.032 326.954 347.88C327.514 348.728 327.794 349.792 327.794 351.072V351.456C327.794 352.752 327.506 353.816 326.93 354.648C326.37 355.48 325.578 356.104 324.554 356.52C323.53 356.936 322.314 357.144 320.906 357.144H316.802ZM341.655 363V345.48H345.063V363H341.655ZM344.583 363V360H352.143V363H344.583ZM363.173 363L369.149 345.48H374.717L380.861 363H377.357L372.149 347.808L373.373 348.336H370.373L371.621 347.808L366.581 363H363.173ZM367.349 358.344L368.429 355.464H375.533L376.589 358.344H367.349ZM401.675 363.456C400.091 363.456 398.715 363.176 397.547 362.616C396.395 362.056 395.435 361.328 394.667 360.432C393.915 359.52 393.347 358.544 392.963 357.504C392.595 356.448 392.411 355.432 392.411 354.456V353.928C392.411 352.856 392.603 351.792 392.987 350.736C393.371 349.664 393.947 348.696 394.715 347.832C395.499 346.968 396.467 346.28 397.619 345.768C398.771 345.24 400.123 344.976 401.675 344.976C403.211 344.976 404.555 345.24 405.707 345.768C406.859 346.28 407.819 346.968 408.587 347.832C409.371 348.696 409.955 349.664 410.339 350.736C410.723 351.792 410.915 352.856 410.915 353.928V354.456C410.915 355.432 410.723 356.448 410.339 357.504C409.971 358.544 409.403 359.52 408.635 360.432C407.883 361.328 406.923 362.056 405.755 362.616C404.603 363.176 403.243 363.456 401.675 363.456ZM401.675 360.288C402.571 360.288 403.371 360.128 404.075 359.808C404.795 359.488 405.403 359.048 405.899 358.488C406.411 357.912 406.795 357.264 407.051 356.544C407.323 355.808 407.459 355.032 407.459 354.216C407.459 353.336 407.323 352.528 407.051 351.792C406.795 351.056 406.411 350.416 405.899 349.872C405.403 349.328 404.795 348.904 404.075 348.6C403.355 348.296 402.555 348.144 401.675 348.144C400.779 348.144 399.971 348.296 399.251 348.6C398.531 348.904 397.915 349.328 397.403 349.872C396.907 350.416 396.523 351.056 396.251 351.792C395.995 352.528 395.867 353.336 395.867 354.216C395.867 355.032 395.995 355.808 396.251 356.544C396.523 357.264 396.907 357.912 397.403 358.488C397.915 359.048 398.531 359.488 399.251 359.808C399.971 360.128 400.779 360.288 401.675 360.288ZM416.608 363V345.48H420.016V363H416.608ZM419.536 363V360H427.096V363H419.536ZM432.322 363V345.48H435.73V363H432.322ZM446.438 363L440.846 345.48H444.374L449.006 360.648L447.998 360.168H450.59L449.558 360.648L453.83 345.48H457.238L452.054 363H446.438ZM462.387 363V345.48H465.723V363H462.387ZM465.243 363V360.12H473.187V363H465.243ZM465.243 355.536V352.656H472.563V355.536H465.243ZM465.243 348.36V345.48H472.995V348.36H465.243ZM479.131 363V345.48H482.539V363H479.131ZM489.312 363V345.36H492.72V363H489.312ZM500.016 363L494.64 355.368H498.456L504 363H500.016ZM491.712 357.144V354.384H496.176C496.8 354.384 497.336 354.256 497.784 354C498.248 353.744 498.608 353.384 498.864 352.92C499.12 352.456 499.248 351.928 499.248 351.336C499.248 350.728 499.12 350.192 498.864 349.728C498.608 349.264 498.248 348.904 497.784 348.648C497.336 348.392 496.8 348.264 496.176 348.264H491.712V345.36H495.816C497.224 345.36 498.44 345.568 499.464 345.984C500.504 346.4 501.304 347.032 501.864 347.88C502.424 348.728 502.704 349.792 502.704 351.072V351.456C502.704 352.752 502.416 353.816 501.84 354.648C501.28 355.48 500.488 356.104 499.464 356.52C498.44 356.936 497.224 357.144 495.816 357.144H491.712ZM507.257 363L513.233 345.48H518.801L524.945 363H521.441L516.233 347.808L517.457 348.336H514.457L515.705 347.808L510.665 363H507.257ZM511.433 358.344L512.513 355.464H519.617L520.673 358.344H511.433Z" fill="#FEFBFF"/>
<path fill-rule="evenodd" clip-rule="evenodd" d="M94.6654 319.851C94.6654 319.852 94.6657 319.826 94.6766 319.771C94.6871 319.717 94.7054 319.646 94.7347 319.559C94.7935 319.385 94.8901 319.165 95.0334 318.917C95.32 318.421 95.7759 317.841 96.4342 317.301C97.733 316.235 99.8636 315.292 103.14 315.533C116.1 316.484 123.415 325.41 123.415 332.161V372.168C123.415 372.805 123.268 373.099 123.132 373.241C123.004 373.375 122.718 373.546 122.028 373.546H114.306C113.616 373.546 113.33 373.375 113.202 373.241C113.066 373.1 112.919 372.805 112.919 372.168V335.238C112.919 332.828 111.735 330.421 109.988 328.634C108.238 326.842 105.817 325.566 103.213 325.566H94.6654V319.851ZM103.213 327.566H94.6654V372.168C94.6654 373.162 94.4817 374.108 93.7928 374.763C93.1156 375.407 92.1813 375.546 91.2784 375.546H83.4154C82.6084 375.546 81.7233 375.389 81.0382 374.792C80.3257 374.171 80.0284 373.251 80.0284 372.168V334.819C80.0284 332.956 81.0921 330.668 82.6635 328.878C84.2482 327.074 86.5354 325.566 89.1714 325.566H92.6654V319.851C92.6654 319.284 92.9171 318.582 93.3016 317.917C93.7056 317.217 94.317 316.45 95.1659 315.754C96.8815 314.347 99.525 313.262 103.287 313.538C117.005 314.545 125.415 324.098 125.415 332.161V372.168C125.415 373.069 125.212 373.963 124.575 374.626C123.931 375.297 123.024 375.546 122.028 375.546H114.306C113.311 375.546 112.403 375.297 111.759 374.626C111.123 373.963 110.919 373.069 110.919 372.168V335.238C110.919 333.463 110.026 331.534 108.558 330.031C107.093 328.532 105.161 327.566 103.213 327.566ZM89.1714 327.566H92.6654V372.168C92.6654 372.991 92.498 373.235 92.4146 373.314C92.3196 373.404 92.0604 373.546 91.2784 373.546H83.4154C82.8182 373.546 82.5098 373.422 82.3524 373.285C82.2226 373.171 82.0284 372.902 82.0284 372.168V334.819C82.0284 333.604 82.7896 331.766 84.1664 330.198C85.5299 328.645 87.3142 327.566 89.1714 327.566ZM164.111 381.128C164.111 381.13 164.11 381.156 164.1 381.209C164.089 381.262 164.071 381.333 164.042 381.42C163.983 381.595 163.886 381.814 163.743 382.063C163.457 382.559 163.001 383.139 162.342 383.679C161.043 384.744 158.913 385.687 155.636 385.447C142.676 384.495 135.361 375.569 135.361 368.819V328.812C135.361 328.175 135.508 327.88 135.644 327.739C135.772 327.605 136.058 327.434 136.748 327.434H144.471C145.16 327.434 145.446 327.605 145.575 327.739C145.71 327.88 145.858 328.175 145.858 328.812V365.741C145.858 368.151 147.042 370.559 148.788 372.346C150.539 374.137 152.96 375.414 155.563 375.414H164.111V381.128V381.128ZM155.563 373.414H164.111V328.812C164.111 327.817 164.295 326.872 164.984 326.216C165.661 325.572 166.595 325.434 167.498 325.434H175.361C176.168 325.434 177.053 325.59 177.738 326.187C178.451 326.808 178.748 327.728 178.748 328.812V366.161C178.748 368.023 177.684 370.312 176.113 372.101C174.528 373.906 172.241 375.414 169.605 375.414H166.111V381.128C166.111 381.695 165.859 382.397 165.475 383.063C165.071 383.762 164.459 384.529 163.611 385.225C161.895 386.632 159.252 387.718 155.49 387.441C141.772 386.434 133.361 376.882 133.361 368.819V328.812C133.361 327.91 133.565 327.016 134.201 326.353C134.845 325.683 135.753 325.434 136.748 325.434H144.471C145.466 325.434 146.373 325.683 147.017 326.353C147.654 327.016 147.858 327.91 147.858 328.812V365.741C147.858 367.516 148.75 369.445 150.219 370.948C151.683 372.447 153.615 373.414 155.563 373.414ZM169.605 373.414H166.111V328.812C166.111 327.988 166.279 327.745 166.362 327.666C166.457 327.575 166.716 327.434 167.498 327.434H175.361C175.958 327.434 176.267 327.558 176.424 327.695C176.554 327.808 176.748 328.077 176.748 328.812V366.161C176.748 367.376 175.987 369.214 174.61 370.782C173.247 372.334 171.462 373.414 169.605 373.414Z" fill="#FEFBFF"/>
<circle cx="581.889" cy="86.4971" r="45.7505" fill="#E71924"/>
<circle cx="637.647" cy="86.4971" r="45.7505" fill="#F99F19"/>
<path fill-rule="evenodd" clip-rule="evenodd" d="M609.768 122.595C620.636 114.23 627.64 101.092 627.64 86.3172C627.64 71.5427 620.636 58.404 609.768 50.0396C598.9 58.404 591.897 71.5427 591.897 86.3172C591.897 101.092 598.9 114.23 609.768 122.595Z" fill="#F26520"/>
<rect x="80.4209" y="156.195" width="97.9347" height="69.3406" rx="6.07624" fill="url(#paint1_linear_609_104)" stroke="#211F21" stroke-width="2.14455"/>
<path d="M80.7783 178.713H110.087" stroke="#211F21" stroke-width="2" stroke-linecap="round"/>
<path d="M80.7783 200.873H109.445" stroke="#211F21" stroke-width="2" stroke-linecap="round"/>
<path d="M149.404 200.873H177.998" stroke="#211F21" stroke-width="2" stroke-linecap="round"/>
<path d="M148.975 179.428H177.998" stroke="#211F21" stroke-width="2" stroke-linecap="round"/>
<circle cx="129.388" cy="166.561" r="2.14455" fill="#211F21"/>
<path d="M231.053 205.824C236.325 192.59 236.926 185.119 231.053 171.645C230.43 170.215 231.053 169.024 231.768 168.786C232.483 168.547 233.589 168.786 234.27 170.215C241.188 184.73 240.767 192.87 234.627 207.387C233.912 208.817 232.575 208.998 231.768 208.46C230.824 207.831 230.608 206.941 231.053 205.824Z" fill="#FEFBFF"/>
<path d="M223.547 172.717C222.832 173.075 222.375 174.43 223.19 175.934C227.999 185.94 227.801 191.662 223.19 202.026C222.686 203.071 222.998 204.226 223.905 204.528C224.977 204.886 225.913 204.125 226.406 203.098C231.701 192.084 231.84 185.756 226.406 174.147C225.905 173.075 224.619 172.181 223.547 172.717Z" fill="#FEFBFF"/>
<path d="M216.399 177.364C215.326 177.721 215.136 178.908 215.684 180.223C218.53 187.063 218.979 190.898 215.684 197.737C215.041 198.929 214.83 200.193 216.041 200.596C217.252 201 218.126 200.363 218.543 199.524C222.766 191.149 221.82 186.454 218.543 178.079C218.263 177.364 217.471 177.006 216.399 177.364Z" fill="#FEFBFF"/>
<path d="M208.893 180.223C207.82 180.938 207.668 182.022 208.535 183.797C210.344 187.564 210.303 189.68 208.535 193.448C207.713 195.11 207.463 197.022 208.893 197.38C210.322 197.737 210.957 197.229 211.752 195.235C213.578 189.987 213.756 187.02 211.752 181.653C211.291 180.261 210.322 179.508 208.893 180.223Z" fill="#FEFBFF"/>
<path d="M145.115 170.849C142.372 161.508 137.251 156.91 129.03 156.91C119.023 156.91 116.194 164.53 110.087 178.355C113.998 187.507 114.039 192.437 110.087 200.873C116.494 219.254 121.24 224.915 129.388 224.821C140.111 224.821 143.163 215.733 149.046 200.873C145.952 192.497 145.622 187.875 148.5 179.5" stroke="#211F21" stroke-width="2" stroke-linecap="round"/>
</g>
<defs>
<filter id="filter0_i_609_104" x="0" y="0" width="725" height="461" filterUnits="userSpaceOnUse" color-interpolation-filters="sRGB">
<feFlood flood-opacity="0" result="BackgroundImageFix"/>
<feBlend mode="normal" in="SourceGraphic" in2="BackgroundImageFix" result="shape"/>
<feColorMatrix in="SourceAlpha" type="matrix" values="0 0 0 0 0 0 0 0 0 0 0 0 0 0 0 0 0 0 127 0" result="hardAlpha"/>
<feOffset dx="3" dy="3"/>
<feGaussianBlur stdDeviation="3"/>
<feComposite in2="hardAlpha" operator="arithmetic" k2="-1" k3="1"/>
<feColorMatrix type="matrix" values="0 0 0 0 1 0 0 0 0 1 0 0 0 0 1 0 0 0 0.25 0"/>
<feBlend mode="normal" in2="shape" result="effect1_innerShadow_609_104"/>
</filter>
<linearGradient id="paint0_linear_609_104" x1="610.09" y1="61.83" x2="354.096" y2="526.995" gradientUnits="userSpaceOnUse">
<stop stop-color="#A950C4"/>
<stop offset="1" stop-color="#82269E"/>
</linearGradient>
<linearGradient id="paint1_linear_609_104" x1="171" y1="165" x2="87" y2="221" gradientUnits="userSpaceOnUse">
<stop stop-color="#F4F4F4"/>
<stop offset="1" stop-color="#D6D6D6"/>
</linearGradient>
<clipPath id="clip0_609_104">
<rect width="722" height="458" fill="white"/>
</clipPath>
</defs>
</svg>
